<svg xmlns="http://www.w3.org/2000/svg" width="39.8" height="50.21" viewBox="0 0 39.8 50.21">
  <g id="badge" transform="translate(-53.074 -0.001)">
    <g id="Group_88" data-name="Group 88" transform="translate(53.074 0.001)">
      <path id="Path_198" data-name="Path 198" d="M92.236,20.617a3.88,3.88,0,0,0-.447-4.823,2.424,2.424,0,0,1-.62-2.179A3.88,3.88,0,0,0,89.01,9.279a2.424,2.424,0,0,1-1.365-1.808,3.88,3.88,0,0,0-3.579-3.263,2.424,2.424,0,0,1-1.926-1.193,3.88,3.88,0,0,0-4.516-1.75A2.424,2.424,0,0,1,75.4.849a3.88,3.88,0,0,0-4.843,0,2.424,2.424,0,0,1-2.227.416,3.88,3.88,0,0,0-4.516,1.75,2.424,2.424,0,0,1-1.926,1.193A3.88,3.88,0,0,0,58.3,7.471a2.424,2.424,0,0,1-1.365,1.808,3.881,3.881,0,0,0-2.159,4.336,2.424,2.424,0,0,1-.62,2.179,3.88,3.88,0,0,0-.447,4.823,2.424,2.424,0,0,1,.209,2.256,3.88,3.88,0,0,0,1.325,4.659,2.424,2.424,0,0,1,1.01,2.028,3.881,3.881,0,0,0,2.919,3.865,2.423,2.423,0,0,1,1.3.846l-4.052,9.783A1.754,1.754,0,0,0,58.553,46.4L62.99,45.04a.284.284,0,0,1,.333.138l2.174,4.1a1.754,1.754,0,0,0,3.17-.151l4.224-10.2q.083,0,.166,0l4.224,10.2a1.754,1.754,0,0,0,3.17.151l2.174-4.1a.283.283,0,0,1,.333-.138L87.394,46.4a1.754,1.754,0,0,0,2.135-2.348l-4.053-9.783a2.423,2.423,0,0,1,1.3-.846,3.881,3.881,0,0,0,2.919-3.865,2.424,2.424,0,0,1,1.01-2.028,3.88,3.88,0,0,0,1.325-4.659,2.426,2.426,0,0,1,.209-2.256ZM67.308,48.565a.282.282,0,0,1-.511.024l-2.174-4.1a1.756,1.756,0,0,0-2.064-.855L58.122,45a.282.282,0,0,1-.344-.379l3.6-8.68A3.879,3.879,0,0,0,64.968,37.5a2.425,2.425,0,0,1,2.113.818,3.865,3.865,0,0,0,3.974,1.2ZM87.826,45l-4.437-1.362a1.756,1.756,0,0,0-2.064.855l-2.174,4.1a.282.282,0,0,1-.511-.024l-3.746-9.042a3.878,3.878,0,0,0,3.974-1.2A2.423,2.423,0,0,1,80.98,37.5a3.876,3.876,0,0,0,3.595-1.564l3.6,8.68a.283.283,0,0,1-.345.379ZM91,19.813a3.894,3.894,0,0,0-.336,3.624,2.416,2.416,0,0,1-.825,2.9,3.894,3.894,0,0,0-1.622,3.258A2.416,2.416,0,0,1,86.4,32,3.893,3.893,0,0,0,84,33.837l0,.008a3.9,3.9,0,0,0-.281.607,2.415,2.415,0,0,1-2.564,1.587,3.894,3.894,0,0,0-3.394,1.315,2.416,2.416,0,0,1-2.964.554,3.892,3.892,0,0,0-1.07-.377l-.009,0a3.89,3.89,0,0,0-1.482,0h-.005a3.9,3.9,0,0,0-1.073.378,2.416,2.416,0,0,1-2.964-.554A3.894,3.894,0,0,0,64.8,36.04a2.416,2.416,0,0,1-2.564-1.587,3.9,3.9,0,0,0-.281-.607l0-.009A3.893,3.893,0,0,0,59.544,32a2.416,2.416,0,0,1-1.817-2.406A3.894,3.894,0,0,0,56.1,26.337a2.416,2.416,0,0,1-.825-2.9,3.894,3.894,0,0,0-.336-3.624,2.416,2.416,0,0,1,.278-3,3.894,3.894,0,0,0,1-3.5,2.416,2.416,0,0,1,1.344-2.7,3.894,3.894,0,0,0,2.193-2.9,2.415,2.415,0,0,1,2.228-2.031A3.894,3.894,0,0,0,65.078,3.76,2.416,2.416,0,0,1,67.889,2.67,3.894,3.894,0,0,0,71.467,2a2.416,2.416,0,0,1,3.015,0,3.894,3.894,0,0,0,3.577.669A2.416,2.416,0,0,1,80.871,3.76a3.894,3.894,0,0,0,3.094,1.916,2.416,2.416,0,0,1,2.228,2.031,3.9,3.9,0,0,0,2.193,2.9,2.415,2.415,0,0,1,1.344,2.7,3.894,3.894,0,0,0,1,3.5A2.416,2.416,0,0,1,91,19.813Z" transform="translate(-53.074 -0.001)" fill="#fff"/>
      <path id="Path_199" data-name="Path 199" d="M108.012,66.217a.736.736,0,0,0,.82-.64,13.212,13.212,0,0,1,26.221.006.735.735,0,0,0,1.46-.179,14.682,14.682,0,0,0-29.141-.007A.735.735,0,0,0,108.012,66.217Z" transform="translate(-102.042 -47.376)" fill="#fff"/>
      <path id="Path_200" data-name="Path 200" d="M135.871,212.21a.736.736,0,0,0-.819.641,13.212,13.212,0,0,1-26.222.006.735.735,0,0,0-1.46.18,14.682,14.682,0,0,0,29.141-.007A.735.735,0,0,0,135.871,212.21Z" transform="translate(-102.04 -191.395)" fill="#fff"/>
      <path id="Path_201" data-name="Path 201" d="M170.215,101.886a1.41,1.41,0,0,0-1.3-.983l-5.766-.207-1.979-5.42a1.423,1.423,0,0,0-2.674,0l-1.979,5.42-5.766.207a1.424,1.424,0,0,0-.827,2.544L154.465,107l-1.585,5.548a1.424,1.424,0,0,0,2.164,1.572l4.787-3.222,4.787,3.222a1.423,1.423,0,0,0,2.164-1.572L165.2,107l4.543-3.557a1.41,1.41,0,0,0,.477-1.561Zm-5.952,3.979a1.418,1.418,0,0,0-.491,1.512l1.558,5.454-4.705-3.167a1.418,1.418,0,0,0-1.59,0l-4.705,3.167,1.558-5.454a1.418,1.418,0,0,0-.491-1.512l-4.466-3.5,5.669-.2a1.418,1.418,0,0,0,1.286-.934l1.945-5.328,1.945,5.328a1.418,1.418,0,0,0,1.286.934l5.668.2Z" transform="translate(-139.93 -85.09)" fill="#fff"/>
    </g>
  </g>
</svg>
