<svg id="business" xmlns="http://www.w3.org/2000/svg" width="80" height="81" viewBox="0 0 80 81">
  <path id="Path_352" data-name="Path 352" d="M16.107,32.747a8.569,8.569,0,0,1,6.828-5.528V18.9L2.45,11.5,22.7,3.613h2.821v23.64a8.506,8.506,0,0,1,6.692,5.91L38.7,54.081a6.53,6.53,0,0,1,2.421-3.45L47.3,46.164l-2.172-9.89H41.415a10.254,10.254,0,0,1-9.228-5.768l-4.908-9.912a4.563,4.563,0,0,1-.472-2.02,4.5,4.5,0,0,1,4.5-4.51,4.424,4.424,0,0,1,3.983,2.493l4.151,8.406A3.843,3.843,0,0,0,42.9,27.129h.823a9.161,9.161,0,0,1,6.31-15.677c.151,0,.3.016.446.024a7.732,7.732,0,0,1,7.3-5.249,6.658,6.658,0,0,1,.844.055A8.988,8.988,0,0,1,66.806,1a9.1,9.1,0,0,1,9.032,9.145c0,.044-.01.088-.01.131a6.54,6.54,0,0,1-1.28,12.934H58.684a9.162,9.162,0,0,1-2.343,3.919h.674A14.247,14.247,0,0,1,69.1,33.968L75.2,44a4.373,4.373,0,0,1,.272,4.033H81v18.29H64.657l1.994,8.336a5.745,5.745,0,0,1,.156,1.325v.381A5.558,5.558,0,0,1,55.8,77.527L51.585,57.265l-2.843,1.918V71.548a5.2,5.2,0,0,1-5.161,5.226H1V73.926ZM22.935,6.319,9.872,11.406,22.935,16.13Zm6.81,27.629a5.909,5.909,0,0,0-11.221-.29L13.578,47.141c.432,1.219,1.328,3.5,2.265,3.5,1.16,0,2.205-3.254,2.969-5.629,1.174-3.655,2.388-7.435,5.423-7.435s4.248,3.78,5.421,7.435c.763,2.375,1.806,5.629,2.965,5.629.508,0,1.084-.7,1.677-2.032ZM74.548,20.6a3.92,3.92,0,1,0-3.871-3.919H68.1a6.525,6.525,0,0,1,5.151-6.4c0-.044.01-.089.01-.133a6.442,6.442,0,0,0-12.6-1.974L60.285,9.36,59.1,9.039a5.059,5.059,0,0,0-1.321-.2,5.147,5.147,0,0,0-4.723,3.15A9.146,9.146,0,0,1,59.065,20.6Zm-18.065,0a6.452,6.452,0,1,0-6.452,6.532A6.5,6.5,0,0,0,56.484,20.6Zm5.1,27.435h5.45L60.652,37.873A3.422,3.422,0,0,0,59.419,36.7Zm-.434,2.613.052.106a9.1,9.1,0,0,0,16.365,0l.053-.106H61.152Zm17.267,3.5a11.577,11.577,0,0,1-18.065,0V63.71H78.419Zm-32.258,17.4V59.183a2.616,2.616,0,0,1,1.15-2.174l3.621-2.444h2.728l4.662,22.424a2.981,2.981,0,0,0,5.9-.622v-.381a3.066,3.066,0,0,0-.084-.711L62,66.323H57.774V48.032h1.183L56.21,33.661h1.564a5.945,5.945,0,0,1,5.054,2.809l6.757,10.752a1.715,1.715,0,0,0,1.458.81h.488a1.741,1.741,0,0,0,1.726-1.748A1.759,1.759,0,0,0,73,45.368l-6.1-10.031a11.658,11.658,0,0,0-9.89-5.6H42.9a6.408,6.408,0,0,1-5.77-3.611l-4.151-8.406a1.9,1.9,0,0,0-3.591.849,1.913,1.913,0,0,0,.2.849l4.908,9.912a7.69,7.69,0,0,0,6.92,4.326H47.2l2.991,13.625-7.566,5.471A3.946,3.946,0,0,0,41,55.948v15.6a2.581,2.581,0,1,0,5.161,0Zm-7.025,2.613a5.221,5.221,0,0,1-.717-2.613V61.891l-3.1-10a3.534,3.534,0,0,1-2.694,1.368c-3.034,0-4.248-3.78-5.421-7.435-.763-2.375-1.806-5.629-2.965-5.629s-2.205,3.254-2.969,5.629c-1.174,3.655-2.387,7.435-5.423,7.435-1.649,0-2.77-1.2-3.556-2.595l-8.619,23.5Z" transform="translate(-1 -1)" fill="#041c3f"/>
  <path id="Path_353" data-name="Path 353" d="M58.613,53H56v2.613h2.613Z" transform="translate(-49.468 14.935)" fill="#041c3f"/>
  <path id="Path_354" data-name="Path 354" d="M54.613,53H52v2.613h2.613Z" transform="translate(-40.242 14.935)" fill="#041c3f"/>
  <path id="Path_355" data-name="Path 355" d="M50.613,53H48v2.613h2.613Z" transform="translate(-31.233 14.935)" fill="#041c3f"/>
</svg>
