<svg xmlns="http://www.w3.org/2000/svg" width="45" height="45.24" viewBox="0 0 45 45.24">
  <path id="Path_202" data-name="Path 202" d="M46.356,27.428l-2.93-.418a10.5,10.5,0,0,0-.493-1.2l1.773-2.364a.75.75,0,0,0-.07-.98l-3.182-3.182A.742.742,0,0,0,41,19.07v-7.22A6,6,0,0,0,43.25,7.17a5.938,5.938,0,0,0-3.43-5.418.75.75,0,0,0-1.07.678v4.2l-1.5.5-1.5-.5V2.43a.75.75,0,0,0-1.07-.675A5.938,5.938,0,0,0,31.25,7.17a6,6,0,0,0,2.25,4.681V16.92H31.25a.75.75,0,0,0-.743.644l-.485,3.4,1.485.212L31.9,18.42h3.2l.393,2.753a.75.75,0,0,0,.533.613,8.954,8.954,0,0,1,1.8.74.75.75,0,0,0,.811-.058L40.857,20.8l2.262,2.262L41.45,25.286a.75.75,0,0,0-.058.811,8.954,8.954,0,0,1,.74,1.8.75.75,0,0,0,.614.532l2.753.393v3.2l-2.753.393a.75.75,0,0,0-.613.533,8.955,8.955,0,0,1-.74,1.8.75.75,0,0,0,.058.811l1.665,2.221-2.262,2.262L38.634,38.37a.75.75,0,0,0-.811-.058,8.954,8.954,0,0,1-1.8.74.75.75,0,0,0-.533.614L35.1,42.42H32V39.248a8.325,8.325,0,0,0-.337-2.341,6.833,6.833,0,1,0-4.8-5.3c-.018-.007-.035-.017-.053-.023L20.75,29.162V28.01a8.317,8.317,0,0,0,2.609-2.09H25.25a2.25,2.25,0,0,0,2.25-2.25V22.032A2.25,2.25,0,0,0,29,19.92V17.67a2.25,2.25,0,0,0-1.5-2.112V14.67a10.5,10.5,0,1,0-21,0v.888A2.25,2.25,0,0,0,5,17.67v2.25a2.25,2.25,0,0,0,2.25,2.25h1.5c.048,0,.095-.007.142-.01a8.267,8.267,0,0,0,4.358,5.85v1.153L7.186,31.588A8.212,8.212,0,0,0,2,39.248V46.17a.75.75,0,0,0,.75.75h28.5a.75.75,0,0,0,.75-.75V43.92h3.75a.75.75,0,0,0,.743-.644l.418-2.93a10.5,10.5,0,0,0,1.2-.493l2.364,1.773a.75.75,0,0,0,.98-.07l3.182-3.182a.75.75,0,0,0,.07-.98L42.934,35.03a10.5,10.5,0,0,0,.493-1.2l2.93-.419A.75.75,0,0,0,47,32.67v-4.5a.75.75,0,0,0-.644-.743Zm-8.25-6.441c-.035-.017-.075-.028-.11-.045V11.67H36.5v5.947l-.007-.054a.75.75,0,0,0-.743-.644H35V11.475a.75.75,0,0,0-.322-.616,4.5,4.5,0,0,1-.428-7.048V7.17a.75.75,0,0,0,.513.712l2.25.75a.75.75,0,0,0,.474,0l2.25-.75a.75.75,0,0,0,.513-.712V3.812a4.5,4.5,0,0,1-.428,7.05.75.75,0,0,0-.322.614v8.47ZM28.25,30.42a5.288,5.288,0,1,1,2.5,4.456,8.187,8.187,0,0,0-1.958-2.158,5.127,5.127,0,0,1-.542-2.3Zm-3-6h-.91a8.175,8.175,0,0,0,.769-2.261c.047,0,.094.011.142.011H26v1.5A.75.75,0,0,1,25.25,24.42Zm-1.5-8.25a2.261,2.261,0,0,1-1.8-.9l-1.35-1.8a.75.75,0,0,0-.505-.294.758.758,0,0,0-.563.158l-2.517,2.011a3.764,3.764,0,0,1-2.339.825H10.25v-.75a6.75,6.75,0,0,1,13.5,0Zm3.75,3.75a.75.75,0,0,1-.75.75h-1.5V16.92h1.5a.75.75,0,0,1,.75.75ZM17,5.67a9.01,9.01,0,0,1,9,9v.75h-.75a8.25,8.25,0,0,0-16.5,0H8v-.75a9.01,9.01,0,0,1,9-9Zm-9.75,15a.75.75,0,0,1-.75-.75V17.67a.75.75,0,0,1,.75-.75h1.5v3.75Zm3,0v-3h4.425a5.268,5.268,0,0,0,3.279-1.151l1.913-1.531.883,1.181a3.769,3.769,0,0,0,3,1.5v3a6.71,6.71,0,0,1-1.142,3.75H17v1.5h4.233A6.743,6.743,0,0,1,10.25,20.67ZM17,28.92a8.225,8.225,0,0,0,2.25-.319V29.67a2.25,2.25,0,1,1-4.5,0V28.6A8.225,8.225,0,0,0,17,28.92Zm13.5,16.5H26V37.17H24.5v8.25H9.5V37.17H8v8.25H3.5V39.248a6.718,6.718,0,0,1,4.244-6.268l5.672-2.269a3.726,3.726,0,0,0,7.168,0l5.672,2.269A6.718,6.718,0,0,1,30.5,39.248Z" transform="translate(-2 -1.68)" fill="#fff"/>
</svg>
