<svg xmlns="http://www.w3.org/2000/svg" width="50.067" height="42.364" viewBox="0 0 50.067 42.364">
  <g id="Group_155" data-name="Group 155" transform="translate(0 0)">
    <path id="Path_264" data-name="Path 264" d="M5.777,59.653h6.74a2.876,2.876,0,0,1,2.889,2.889V63.5a7.421,7.421,0,0,1-2.257,5.446A7.423,7.423,0,0,1,7.7,71.206H5.777a1.851,1.851,0,0,0-1.354.572,1.851,1.851,0,0,0-.572,1.354v3.852a1.852,1.852,0,0,0,.572,1.354,1.852,1.852,0,0,0,1.354.572H7.7a15.012,15.012,0,0,0,5.973-1.219,15.259,15.259,0,0,0,8.214-8.214A15.005,15.005,0,0,0,23.108,63.5V42.322a5.752,5.752,0,0,0-5.777-5.777H5.777A5.572,5.572,0,0,0,1.685,38.23,5.572,5.572,0,0,0,0,42.322V53.876a5.57,5.57,0,0,0,1.686,4.092A5.572,5.572,0,0,0,5.777,59.653Z" transform="translate(26.959 -36.545)" fill="#f5b904"/>
    <path id="Path_265" data-name="Path 265" d="M257.5,57.968a5.571,5.571,0,0,0,4.092,1.685h6.74a2.876,2.876,0,0,1,2.888,2.889V63.5a7.7,7.7,0,0,1-7.7,7.7H261.6a1.953,1.953,0,0,0-1.926,1.926v3.852a1.953,1.953,0,0,0,1.926,1.926h1.925a15.016,15.016,0,0,0,5.974-1.219,15.264,15.264,0,0,0,8.213-8.214,15.009,15.009,0,0,0,1.219-5.973V42.322a5.752,5.752,0,0,0-5.777-5.777H261.6a5.752,5.752,0,0,0-5.776,5.777V53.876A5.571,5.571,0,0,0,257.5,57.968Z" transform="translate(-255.82 -36.545)" fill="#f5b904"/>
  </g>
</svg>
