<svg id="Out_line" data-name="Out line" xmlns="http://www.w3.org/2000/svg" width="80" height="80" viewBox="0 0 80 80">
  <path id="Path_356" data-name="Path 356" d="M17.333,233.333A1.333,1.333,0,0,1,18.667,232H29.333a1.333,1.333,0,0,1,1.333,1.333v40h2.667V250.667a1.333,1.333,0,0,1,1.333-1.333H45.333a1.333,1.333,0,0,1,1.333,1.333v22.667h2.667v-12A1.333,1.333,0,0,1,50.667,260H61.333a1.333,1.333,0,0,1,1.333,1.333v12h2.667v-20A1.333,1.333,0,0,1,66.667,252H77.333a1.333,1.333,0,0,1,1.333,1.333v20h2.667V260a1.333,1.333,0,0,1,1.333-1.333H93.333A1.333,1.333,0,0,1,94.667,260v13.333H96V276H16v-2.667h1.333ZM28,234.667H20v38.667h8ZM44,252H36v21.333h8Zm16,10.667H52v10.667h8Zm16-8H68v18.667h8Zm16,6.667H84v12h8Z" transform="translate(-16 -196)" fill="#041c3f"/>
  <path id="Path_357" data-name="Path 357" d="M61.756,120h8v2.667H64.975L82.7,140.391a4,4,0,0,1,5.333,5.332L98.7,156.391a3.994,3.994,0,0,1,4.69.929l9.04-3.768c0-.073-.006-.145-.006-.219a4,4,0,1,1,7.968.494l12.628,6.313-1.192,2.385-12.63-6.314a3.992,3.992,0,0,1-5.74-.2l-9.04,3.768c0,.073.006.146.006.219a4,4,0,1,1-7.609-1.723L86.146,147.609a4,4,0,0,1-5.333-5.332L63.09,124.552v4.781H60.423v-8A1.333,1.333,0,0,1,61.756,120Zm54.667,34.667a1.333,1.333,0,1,0-1.333-1.333A1.333,1.333,0,0,0,116.423,154.667Zm-16,6.667A1.333,1.333,0,1,0,99.09,160a1.333,1.333,0,0,0,1.333,1.333Zm-16-16A1.333,1.333,0,1,0,83.09,144a1.333,1.333,0,0,0,1.333,1.333Z" transform="translate(-60.423 -102.667)" fill="#041c3f"/>
  <path id="Path_358" data-name="Path 358" d="M65.333,122.84a12.67,12.67,0,0,1-6.712-1.91,33.392,33.392,0,0,0-9.612-4.085,1.333,1.333,0,0,1,0-2.587,33.392,33.392,0,0,0,9.612-4.085,12.74,12.74,0,0,1,13.423,0,33.392,33.392,0,0,0,9.612,4.085,1.333,1.333,0,0,1,0,2.587,33.392,33.392,0,0,0-9.612,4.085,12.67,12.67,0,0,1-6.712,1.91Zm-9.283-8.248q-1.123.52-2.278.96,1.155.443,2.278.96a9.239,9.239,0,0,1,0-1.92Zm15.422-1.648q-.422-.248-.84-.508a10.058,10.058,0,0,0-10.6,0q-.417.26-.84.508a6.7,6.7,0,0,0,0,5.217q.422.248.84.508a10.057,10.057,0,0,0,10.6,0q.417-.26.84-.508a6.7,6.7,0,0,0,0-5.217Zm3.145,3.568q1.122-.52,2.278-.96-1.155-.443-2.278-.96a9.24,9.24,0,0,1,0,1.92Z" transform="translate(-8 -92.885)" fill="#041c3f"/>
  <path id="Path_359" data-name="Path 359" d="M132,136a4,4,0,1,1,4-4A4,4,0,0,1,132,136Zm0-5.333A1.333,1.333,0,1,0,133.333,132,1.333,1.333,0,0,0,132,130.667Z" transform="translate(-74.667 -109.333)" fill="#041c3f"/>
  <path id="Path_360" data-name="Path 360" d="M40.089,61.333a22.607,22.607,0,0,1-11.5-3.13l-10.745,4.45A1.332,1.332,0,0,1,16.1,60.912l4.45-10.745A22.669,22.669,0,1,1,40.089,61.333Zm0-42.667A20,20,0,0,0,23.17,49.337v0l.008.013a20.171,20.171,0,0,0,2.387,3.065L23.629,54.25q-.667-.705-1.273-1.467L19.8,58.958l8.4-3.478a1.32,1.32,0,0,1,.51-.1,1.339,1.339,0,0,1,.713.207,20,20,0,1,0,10.67-36.918Z" transform="translate(17.245 -16)" fill="#041c3f"/>
</svg>
