<svg xmlns="http://www.w3.org/2000/svg" width="130.503" height="124.762" viewBox="0 0 130.503 124.762">
  <g id="Group_289" data-name="Group 289" transform="translate(-796.966 -3786.488)">
    <g id="workflow" transform="translate(831.979 3830.45)">
      <path id="Path_52" data-name="Path 52" d="M57.559,49.084H50.967V2.942A.941.941,0,0,0,50.025,2H2.942A.941.941,0,0,0,2,2.942v50.85A4.714,4.714,0,0,0,6.708,58.5H53.792A4.714,4.714,0,0,0,58.5,53.792V50.025A.941.941,0,0,0,57.559,49.084Zm-48.025.942v3.767a2.825,2.825,0,1,1-5.65,0V3.883h45.2v45.2H10.475A.941.941,0,0,0,9.533,50.025Zm47.084,3.767a2.828,2.828,0,0,1-2.825,2.825H10.473a4.686,4.686,0,0,0,.944-2.825V50.967h45.2Z" fill="#fff"/>
      <path id="Path_53" data-name="Path 53" d="M23,27.708A4.708,4.708,0,1,0,27.708,23,4.714,4.714,0,0,0,23,27.708Zm7.533,0a2.825,2.825,0,1,1-2.825-2.825A2.828,2.828,0,0,1,30.533,27.708Z" transform="translate(-1.225 -1.225)" fill="#fff"/>
      <path id="Path_54" data-name="Path 54" d="M19.825,13.592h6.592V16.47c-.122.012-.238.021-.371.038a.941.941,0,0,0-.752.577l-.69,1.68a8.6,8.6,0,0,0-.964.4l-1.673-.7a.941.941,0,0,0-.94.125,10.437,10.437,0,0,0-1.857,1.857.943.943,0,0,0-.125.94l.7,1.672a8.6,8.6,0,0,0-.4.965l-1.68.689a.943.943,0,0,0-.577.753,9.5,9.5,0,0,0,0,2.624.943.943,0,0,0,.577.753l1.68.689a8.624,8.624,0,0,0,.4.964l-.7,1.672a.942.942,0,0,0,.125.94,10.4,10.4,0,0,0,1.857,1.858.945.945,0,0,0,.94.125l1.673-.7a8.6,8.6,0,0,0,.964.4l.69,1.68a.941.941,0,0,0,.752.577c.132.017.248.025.371.037v2.879H19.825a.941.941,0,0,0-.942.942v4.708a.941.941,0,0,0,.942.942H34.892a.941.941,0,0,0,.942-.942V40.9a.941.941,0,0,0-.942-.942H28.3V37.08c.123-.012.238-.02.371-.037a.941.941,0,0,0,.752-.577l.69-1.68a8.461,8.461,0,0,0,.964-.4l1.673.7a.946.946,0,0,0,.94-.125,10.4,10.4,0,0,0,1.857-1.858.942.942,0,0,0,.125-.94l-.7-1.672a8.556,8.556,0,0,0,.4-.964l1.68-.689a.943.943,0,0,0,.577-.753,9.5,9.5,0,0,0,0-2.624.943.943,0,0,0-.577-.753l-1.68-.689a8.623,8.623,0,0,0-.4-.964l.7-1.672a.942.942,0,0,0-.125-.94,10.4,10.4,0,0,0-1.857-1.858.941.941,0,0,0-.94-.125l-1.673.7a8.6,8.6,0,0,0-.964-.4l-.69-1.68a.941.941,0,0,0-.752-.577c-.133-.017-.248-.025-.371-.038V13.592h6.592a.941.941,0,0,0,.942-.942V7.942A.941.941,0,0,0,34.892,7H19.825a.941.941,0,0,0-.942.942V12.65a.941.941,0,0,0,.942.942ZM33.95,44.667H20.767V41.842H33.95Zm-4.8-24.23a6.623,6.623,0,0,1,1.42.586.946.946,0,0,0,.823.047l1.556-.651a8.648,8.648,0,0,1,.762.763l-.65,1.556a.945.945,0,0,0,.047.823,6.546,6.546,0,0,1,.586,1.42.94.94,0,0,0,.548.615l1.568.643c.015.189.021.365.021.536s-.006.347-.021.536l-1.568.643a.94.94,0,0,0-.548.615,6.578,6.578,0,0,1-.586,1.419.945.945,0,0,0-.048.824l.651,1.556a8.588,8.588,0,0,1-.762.763L31.4,32.48a.945.945,0,0,0-.824.048,6.564,6.564,0,0,1-1.419.585.939.939,0,0,0-.614.549l-.644,1.568a6.955,6.955,0,0,1-1.072,0l-.644-1.568a.939.939,0,0,0-.614-.549,6.623,6.623,0,0,1-1.42-.586.945.945,0,0,0-.823-.047l-1.556.651A8.65,8.65,0,0,1,21,32.368l.65-1.556a.945.945,0,0,0-.047-.823,6.546,6.546,0,0,1-.586-1.42.94.94,0,0,0-.548-.615L18.9,27.311c-.015-.189-.021-.365-.021-.536s.006-.347.021-.536l1.568-.643a.94.94,0,0,0,.548-.615,6.579,6.579,0,0,1,.586-1.419.945.945,0,0,0,.048-.824L21,21.182a8.645,8.645,0,0,1,.762-.762l1.556.651a.946.946,0,0,0,.823-.047,6.623,6.623,0,0,1,1.42-.586.939.939,0,0,0,.614-.549l.644-1.568a6.955,6.955,0,0,1,1.072,0l.644,1.568a.939.939,0,0,0,.614.549ZM20.767,8.883H33.95v2.825H20.767Z" transform="translate(-0.875 -0.292)" fill="#fff"/>
      <path id="Path_55" data-name="Path 55" d="M39.49,19.95a13.184,13.184,0,0,1-1.607,16.695l1.332,1.332a15.033,15.033,0,0,0,1.376-19.7h1.953V16.394h-4a.941.941,0,0,0-.942.942v4H39.49Z" transform="translate(-2.077 -0.84)" fill="#fff"/>
      <path id="Path_56" data-name="Path 56" d="M13.083,36.386V38.27h4a.941.941,0,0,0,.942-.942v-4H16.137v1.38a13.184,13.184,0,0,1,1.607-16.695l-1.332-1.332a15.033,15.033,0,0,0-1.376,19.7Z" transform="translate(-0.583 -0.857)" fill="#fff"/>
    </g>
    <g id="Group_189" data-name="Group 189" transform="translate(606.229 -1014.25)">
      <line id="Line_46" data-name="Line 46" x2="64" y2="38" transform="translate(254.5 4803.5)" fill="#f5b904" stroke="#f5b904" stroke-linecap="round" stroke-width="4"/>
      <line id="Line_45" data-name="Line 45" x1="61" y2="39" transform="translate(193.5 4803.5)" fill="#f5b904" stroke="#f5b904" stroke-linecap="round" stroke-width="4"/>
      <path id="Union_3" data-name="Union 3" d="M-7510.415-6920l.639,68.2.2,21.8Z" transform="translate(7813.493 11753.5)" fill="none" stroke="#f5b904" stroke-linecap="round" stroke-linejoin="round" stroke-width="4"/>
    </g>
  </g>
</svg>
