<svg xmlns="http://www.w3.org/2000/svg" width="130.503" height="102.462" viewBox="0 0 130.503 102.462">
  <g id="Group_288" data-name="Group 288" transform="translate(-1063.615 -3786.488)">
    <g id="Consult-Talk" transform="translate(1099.125 3831.469)">
      <rect id="Rectangle_351" data-name="Rectangle 351" width="1.85" height="1.85" transform="translate(14.951 23.253)" fill="#fff"/>
      <rect id="Rectangle_352" data-name="Rectangle 352" width="1.85" height="1.85" transform="translate(24.202 23.253)" fill="#fff"/>
      <path id="Path_202" data-name="Path 202" d="M56.711,33.438,53.1,32.922a12.947,12.947,0,0,0-.608-1.48l2.187-2.916a.925.925,0,0,0-.086-1.209l-3.925-3.925a.915.915,0,0,0-.561-.262v-8.9A7.4,7.4,0,0,0,52.88,8.452a7.324,7.324,0,0,0-4.23-6.683.925.925,0,0,0-1.32.836v5.18l-1.85.617-1.85-.617V2.605a.925.925,0,0,0-1.32-.833,7.324,7.324,0,0,0-4.23,6.679,7.4,7.4,0,0,0,2.775,5.773v6.253H38.078a.925.925,0,0,0-.916.794l-.6,4.19,1.832.262.485-3.4h3.946l.485,3.4a.925.925,0,0,0,.657.757,11.045,11.045,0,0,1,2.22.913.925.925,0,0,0,1-.071l2.739-2.054,2.79,2.79L50.659,30.8a.925.925,0,0,0-.071,1,11.044,11.044,0,0,1,.913,2.22.925.925,0,0,0,.757.657l3.4.485v3.946l-3.4.485a.925.925,0,0,0-.757.657,11.045,11.045,0,0,1-.913,2.22.925.925,0,0,0,.071,1l2.054,2.739L49.923,49l-2.737-2.061a.925.925,0,0,0-1-.071,11.044,11.044,0,0,1-2.22.913.925.925,0,0,0-.657.757l-.482,3.4H39V48.018a10.268,10.268,0,0,0-.416-2.887A8.428,8.428,0,1,0,32.672,38.6c-.022-.009-.043-.02-.066-.029l-7.479-2.992V34.156a10.258,10.258,0,0,0,3.218-2.577h2.332A2.775,2.775,0,0,0,33.453,28.8v-2.02a2.775,2.775,0,0,0,1.85-2.605V21.4a2.775,2.775,0,0,0-1.85-2.605V17.7a12.951,12.951,0,1,0-25.9,0v1.1A2.775,2.775,0,0,0,5.7,21.4v2.775a2.775,2.775,0,0,0,2.775,2.775h1.85c.059,0,.117-.009.175-.013a10.2,10.2,0,0,0,5.376,7.216v1.422L8.4,38.57A10.129,10.129,0,0,0,2,48.018v8.538a.925.925,0,0,0,.925.925H38.078A.925.925,0,0,0,39,56.556V53.781h4.625a.925.925,0,0,0,.916-.794l.516-3.614a12.951,12.951,0,0,0,1.48-.608l2.916,2.187a.925.925,0,0,0,1.209-.086l3.925-3.925a.925.925,0,0,0,.086-1.209L52.49,42.816a12.951,12.951,0,0,0,.608-1.48l3.614-.516a.925.925,0,0,0,.793-.915V34.354a.925.925,0,0,0-.794-.916ZM46.535,25.494c-.043-.021-.092-.035-.136-.056V14H44.554v7.336l-.009-.067a.925.925,0,0,0-.916-.794H42.7V13.762a.925.925,0,0,0-.4-.76,5.551,5.551,0,0,1-.528-8.693V8.452a.925.925,0,0,0,.633.878l2.775.925a.925.925,0,0,0,.585,0l2.775-.925a.925.925,0,0,0,.633-.878V4.309a5.55,5.55,0,0,1-.528,8.7.925.925,0,0,0-.4.757V24.209ZM34.378,37.129a6.522,6.522,0,1,1,3.083,5.5,10.1,10.1,0,0,0-2.415-2.661,6.324,6.324,0,0,1-.668-2.834Zm-3.7-7.4H29.555A10.083,10.083,0,0,0,30.5,26.94c.058,0,.116.013.175.013H31.6V28.8A.925.925,0,0,1,30.678,29.729Zm-1.85-10.176a2.789,2.789,0,0,1-2.22-1.11l-1.665-2.22a.925.925,0,0,0-.624-.363.935.935,0,0,0-.695.2l-3.1,2.48a4.642,4.642,0,0,1-2.885,1.018H12.176v-.925a8.326,8.326,0,0,1,16.652,0Zm4.625,4.625a.925.925,0,0,1-.925.925h-1.85V20.478h1.85a.925.925,0,0,1,.925.925ZM20.5,6.6A11.113,11.113,0,0,1,31.6,17.7v.925h-.925a10.176,10.176,0,0,0-20.352,0H9.4V17.7A11.113,11.113,0,0,1,20.5,6.6ZM8.476,25.1a.925.925,0,0,1-.925-.925V21.4a.925.925,0,0,1,.925-.925h1.85V25.1Zm3.7,0V21.4h5.458a6.5,6.5,0,0,0,4.044-1.419l2.36-1.888,1.089,1.457a4.649,4.649,0,0,0,3.7,1.85v3.7a8.277,8.277,0,0,1-1.408,4.625H20.5v1.85h5.221A8.317,8.317,0,0,1,12.176,25.1ZM20.5,35.279a10.145,10.145,0,0,0,2.775-.394V36.2a2.775,2.775,0,1,1-5.551,0V34.885a10.145,10.145,0,0,0,2.775.394ZM37.153,55.631H31.6V45.455h-1.85V55.631h-18.5V45.455H9.4V55.631H3.85V48.018a8.287,8.287,0,0,1,5.234-7.731l7-2.8a4.6,4.6,0,0,0,8.842,0l7,2.8a8.287,8.287,0,0,1,5.234,7.731Z" transform="translate(0)" fill="#fff"/>
      <rect id="Rectangle_353" data-name="Rectangle 353" width="1.85" height="1.85" transform="translate(39.928 24.178)" fill="#fff"/>
      <rect id="Rectangle_354" data-name="Rectangle 354" width="1.85" height="1.85" transform="translate(39.928 48.23)" fill="#fff"/>
      <rect id="Rectangle_355" data-name="Rectangle 355" width="1.85" height="1.85" transform="translate(48.048 45.633) rotate(-45)" fill="#fff"/>
      <rect id="Rectangle_356" data-name="Rectangle 356" width="1.85" height="1.85" transform="translate(51.955 36.204)" fill="#fff"/>
      <rect id="Rectangle_357" data-name="Rectangle 357" width="1.85" height="1.85" transform="translate(48.049 28.626) rotate(-45)" fill="#fff"/>
    </g>
    <g id="Group_190" data-name="Group 190" transform="translate(872.877 -1014.25)">
      <line id="Line_46" data-name="Line 46" x2="64" y2="38" transform="translate(254.5 4803.5)" fill="#f5b904" stroke="#f5b904" stroke-linecap="round" stroke-width="4"/>
      <line id="Line_45" data-name="Line 45" x1="61" y2="39" transform="translate(193.5 4803.5)" fill="#f5b904" stroke="#f5b904" stroke-linecap="round" stroke-width="4"/>
    </g>
  </g>
</svg>
