<svg xmlns="http://www.w3.org/2000/svg" width="130.503" height="124.763" viewBox="0 0 130.503 124.763">
  <g id="Group_291" data-name="Group 291" transform="translate(-170.513 -3786.487)">
    <g id="badge" transform="translate(161.992 3828.249)">
      <g id="Group_88" data-name="Group 88" transform="translate(53.074 0.001)">
        <path id="Path_198" data-name="Path 198" d="M95.713,22.447a4.225,4.225,0,0,0-.487-5.251,2.639,2.639,0,0,1-.675-2.372A4.225,4.225,0,0,0,92.2,10.1a2.639,2.639,0,0,1-1.487-1.968,4.225,4.225,0,0,0-3.9-3.553,2.639,2.639,0,0,1-2.1-1.3A4.225,4.225,0,0,0,79.8,1.378,2.64,2.64,0,0,1,77.377.925a4.225,4.225,0,0,0-5.274,0,2.639,2.639,0,0,1-2.425.453,4.225,4.225,0,0,0-4.918,1.905,2.639,2.639,0,0,1-2.1,1.3,4.225,4.225,0,0,0-3.9,3.553A2.639,2.639,0,0,1,57.281,10.1a4.225,4.225,0,0,0-2.351,4.721,2.64,2.64,0,0,1-.675,2.373,4.225,4.225,0,0,0-.487,5.251A2.639,2.639,0,0,1,54,24.9a4.225,4.225,0,0,0,1.443,5.072,2.639,2.639,0,0,1,1.1,2.208,4.225,4.225,0,0,0,3.178,4.208,2.638,2.638,0,0,1,1.411.921L56.715,47.966a1.91,1.91,0,0,0,2.324,2.556L63.87,49.04a.309.309,0,0,1,.362.15L66.6,53.654a1.91,1.91,0,0,0,3.451-.164l4.6-11.1q.091,0,.181,0l4.6,11.1a1.91,1.91,0,0,0,3.451.164l2.367-4.464a.308.308,0,0,1,.362-.15l4.831,1.482a1.91,1.91,0,0,0,2.324-2.556L88.354,37.314a2.638,2.638,0,0,1,1.411-.921,4.225,4.225,0,0,0,3.178-4.208,2.639,2.639,0,0,1,1.1-2.208A4.225,4.225,0,0,0,95.485,24.9a2.642,2.642,0,0,1,.228-2.457ZM68.572,52.877a.307.307,0,0,1-.557.026l-2.367-4.464a1.912,1.912,0,0,0-2.247-.931L58.57,48.991a.307.307,0,0,1-.375-.412l3.914-9.451a4.223,4.223,0,0,0,3.914,1.7,2.64,2.64,0,0,1,2.3.891,4.209,4.209,0,0,0,4.327,1.308Zm22.34-3.886-4.831-1.482a1.912,1.912,0,0,0-2.247.931L81.467,52.9a.308.308,0,0,1-.557-.026l-4.078-9.845a4.222,4.222,0,0,0,4.327-1.31,2.638,2.638,0,0,1,2.3-.891,4.221,4.221,0,0,0,3.914-1.7l3.915,9.45a.308.308,0,0,1-.375.413Zm3.46-27.419a4.24,4.24,0,0,0-.366,3.946,2.63,2.63,0,0,1-.9,3.158,4.24,4.24,0,0,0-1.766,3.547,2.63,2.63,0,0,1-1.979,2.62,4.239,4.239,0,0,0-2.618,2l0,.008a4.242,4.242,0,0,0-.306.661,2.629,2.629,0,0,1-2.791,1.728,4.24,4.24,0,0,0-3.695,1.431,2.63,2.63,0,0,1-3.227.6,4.237,4.237,0,0,0-1.165-.411l-.01,0a4.236,4.236,0,0,0-1.614,0h-.006a4.243,4.243,0,0,0-1.168.411,2.63,2.63,0,0,1-3.227-.6,4.24,4.24,0,0,0-3.695-1.431,2.63,2.63,0,0,1-2.791-1.728,4.247,4.247,0,0,0-.305-.661l-.005-.01a4.239,4.239,0,0,0-2.617-2,2.63,2.63,0,0,1-1.978-2.62,4.24,4.24,0,0,0-1.766-3.547,2.63,2.63,0,0,1-.9-3.158,4.24,4.24,0,0,0-.366-3.946,2.63,2.63,0,0,1,.3-3.269A4.24,4.24,0,0,0,56.5,14.492a2.63,2.63,0,0,1,1.463-2.939,4.24,4.24,0,0,0,2.388-3.162,2.63,2.63,0,0,1,2.426-2.212,4.239,4.239,0,0,0,3.369-2.086A2.63,2.63,0,0,1,69.2,2.907a4.24,4.24,0,0,0,3.9-.728,2.63,2.63,0,0,1,3.283,0,4.239,4.239,0,0,0,3.895.728,2.63,2.63,0,0,1,3.061,1.186,4.24,4.24,0,0,0,3.369,2.086,2.63,2.63,0,0,1,2.426,2.212,4.241,4.241,0,0,0,2.388,3.162,2.63,2.63,0,0,1,1.463,2.939A4.24,4.24,0,0,0,94.07,18.3,2.631,2.631,0,0,1,94.372,21.572Z" transform="translate(-53.074 -0.001)" fill="#fff"/>
        <path id="Path_199" data-name="Path 199" d="M108.069,67.433a.8.8,0,0,0,.893-.7,14.385,14.385,0,0,1,28.55.007.8.8,0,0,0,1.59-.195,15.986,15.986,0,0,0-31.729-.007A.8.8,0,0,0,108.069,67.433Z" transform="translate(-101.569 -46.919)" fill="#fff"/>
        <path id="Path_200" data-name="Path 200" d="M138.4,212.21a.8.8,0,0,0-.892.7,14.385,14.385,0,0,1-28.55.006.8.8,0,0,0-1.59.2A15.986,15.986,0,0,0,139.1,213.1.8.8,0,0,0,138.4,212.21Z" transform="translate(-101.567 -189.547)" fill="#fff"/>
        <path id="Path_201" data-name="Path 201" d="M172.066,102.556a1.535,1.535,0,0,0-1.418-1.07l-6.278-.225-2.154-5.9a1.55,1.55,0,0,0-2.912,0l-2.154,5.9-6.278.225a1.55,1.55,0,0,0-.9,2.769l4.947,3.873-1.726,6.041a1.55,1.55,0,0,0,2.356,1.712l5.212-3.508,5.212,3.508a1.55,1.55,0,0,0,2.356-1.712l-1.726-6.041,4.947-3.873a1.535,1.535,0,0,0,.519-1.7Zm-6.48,4.332a1.544,1.544,0,0,0-.535,1.646l1.7,5.938-5.123-3.448a1.544,1.544,0,0,0-1.731,0l-5.123,3.448,1.7-5.938a1.544,1.544,0,0,0-.535-1.646l-4.863-3.807,6.172-.221a1.544,1.544,0,0,0,1.4-1.017l2.118-5.8,2.118,5.8a1.544,1.544,0,0,0,1.4,1.017l6.172.221Z" transform="translate(-139.092 -84.268)" fill="#fff"/>
      </g>
    </g>
    <g id="Group_187" data-name="Group 187" transform="translate(-20.225 -1014.25)">
      <path id="Path_284" data-name="Path 284" d="M6.549,0h.936a6.786,6.786,0,0,1,6.549,7V24.743l1.3-.81c-5.214,0-13.9-3.129-15.231-8.975-.033-.141-.1-.537-.1-.537V7A6.786,6.786,0,0,1,6.549,0Z" transform="translate(290.967 4809)" fill="#f5b904"/>
      <path id="Path_285" data-name="Path 285" d="M0,0,64,38" transform="translate(254.5 4803.5)" fill="#f5b904" stroke="#f5b904" stroke-linecap="round" stroke-width="4"/>
      <line id="Line_45" data-name="Line 45" x1="61" y2="39" transform="translate(193.5 4803.5)" fill="#f5b904" stroke="#f5b904" stroke-linecap="round" stroke-width="4"/>
      <path id="Union_3" data-name="Union 3" d="M-7510.416-6920l.64,68.2.2,21.8Zm-91.744,90h0Zm-1.995-90,1.186,53.437.809,36.563Z" transform="translate(7813.493 11753.5)" fill="none" stroke="#f5b904" stroke-linecap="round" stroke-linejoin="round" stroke-width="4"/>
    </g>
  </g>
</svg>
