<svg xmlns="http://www.w3.org/2000/svg" width="130.503" height="120.782" viewBox="0 0 130.503 120.782">
  <g id="Consult-Talk" transform="translate(35.384 45.556)">
    <rect id="Rectangle_351" data-name="Rectangle 351" width="1.859" height="1.859" transform="translate(15.01 23.351)" fill="#fff"/>
    <rect id="Rectangle_352" data-name="Rectangle 352" width="1.859" height="1.859" transform="translate(24.302 23.351)" fill="#fff"/>
    <path id="Path_202" data-name="Path 202" d="M56.959,33.582l-3.631-.519a13.008,13.008,0,0,0-.611-1.487l2.2-2.929a.929.929,0,0,0-.086-1.215L50.885,23.49a.919.919,0,0,0-.563-.263V14.282a7.434,7.434,0,0,0,2.788-5.8,7.357,7.357,0,0,0-4.25-6.713.929.929,0,0,0-1.326.84v5.2l-1.859.62-1.859-.62v-5.2a.929.929,0,0,0-1.326-.836,7.357,7.357,0,0,0-4.25,6.709,7.434,7.434,0,0,0,2.788,5.8v6.281H38.242a.929.929,0,0,0-.92.8l-.6,4.209,1.84.263.487-3.41h3.964l.487,3.41a.929.929,0,0,0,.66.76,11.094,11.094,0,0,1,2.23.917.929.929,0,0,0,1-.072l2.752-2.063,2.8,2.8L50.88,30.929a.929.929,0,0,0-.072,1,11.1,11.1,0,0,1,.917,2.23.929.929,0,0,0,.76.66l3.41.487v3.964l-3.41.487a.929.929,0,0,0-.76.66,11.1,11.1,0,0,1-.917,2.23.929.929,0,0,0,.072,1l2.063,2.752-2.8,2.8-2.75-2.07a.929.929,0,0,0-1-.072,11.094,11.094,0,0,1-2.23.917.929.929,0,0,0-.66.76l-.484,3.412H39.171v-3.93a10.315,10.315,0,0,0-.418-2.9,8.466,8.466,0,1,0-5.942-6.563c-.022-.009-.044-.02-.066-.029l-7.513-3.005V34.3a10.3,10.3,0,0,0,3.233-2.589h2.343A2.788,2.788,0,0,0,33.6,28.926V26.9a2.788,2.788,0,0,0,1.859-2.617V21.492A2.788,2.788,0,0,0,33.6,18.875v-1.1a13.01,13.01,0,1,0-26.02,0v1.1a2.788,2.788,0,0,0-1.859,2.617V24.28A2.788,2.788,0,0,0,8.5,27.068h1.859c.059,0,.117-.009.176-.013a10.243,10.243,0,0,0,5.4,7.248v1.428L8.426,38.737A10.175,10.175,0,0,0,2,48.228V56.8a.929.929,0,0,0,.929.929H38.242a.929.929,0,0,0,.929-.929V54.017h4.646a.929.929,0,0,0,.92-.8l.519-3.631a13.011,13.011,0,0,0,1.487-.611l2.929,2.2a.929.929,0,0,0,1.215-.086l3.943-3.943a.929.929,0,0,0,.086-1.215L52.719,43a13.01,13.01,0,0,0,.611-1.487L56.96,41a.929.929,0,0,0,.8-.919V34.5a.929.929,0,0,0-.8-.92ZM46.737,25.6c-.044-.021-.093-.035-.137-.056V14.058H44.746v7.369l-.009-.067a.929.929,0,0,0-.92-.8h-.929V13.816a.929.929,0,0,0-.4-.763,5.576,5.576,0,0,1-.531-8.732V8.482a.929.929,0,0,0,.636.882l2.788.929a.929.929,0,0,0,.587,0l2.788-.929a.929.929,0,0,0,.636-.882V4.321a5.576,5.576,0,0,1-.531,8.735.929.929,0,0,0-.4.76V24.311ZM34.524,37.29a6.551,6.551,0,1,1,3.1,5.521A10.144,10.144,0,0,0,35.2,40.137a6.352,6.352,0,0,1-.671-2.847Zm-3.717-7.434H29.679a10.129,10.129,0,0,0,.953-2.8c.059,0,.116.013.176.013h.929v1.859A.929.929,0,0,1,30.807,29.855ZM28.949,19.634a2.8,2.8,0,0,1-2.23-1.115l-1.673-2.23a.929.929,0,0,0-.626-.364.94.94,0,0,0-.7.2L20.6,18.611a4.663,4.663,0,0,1-2.9,1.022H12.222V18.7a8.363,8.363,0,0,1,16.727,0ZM33.6,24.28a.929.929,0,0,1-.929.929H30.807V20.563h1.859a.929.929,0,0,1,.929.929ZM20.585,6.624A11.163,11.163,0,0,1,31.737,17.775V18.7h-.929a10.222,10.222,0,0,0-20.444,0H9.434v-.929A11.163,11.163,0,0,1,20.585,6.624ZM8.5,25.209a.929.929,0,0,1-.929-.929V21.492a.929.929,0,0,1,.929-.929h1.859v4.646Zm3.717,0V21.492H17.7a6.527,6.527,0,0,0,4.063-1.426l2.371-1.9,1.094,1.464a4.67,4.67,0,0,0,3.717,1.859v3.717a8.314,8.314,0,0,1-1.414,4.646H20.585v1.859H25.83a8.355,8.355,0,0,1-13.608-6.5Zm8.363,10.222a10.191,10.191,0,0,0,2.788-.4V36.36a2.788,2.788,0,1,1-5.576,0V35.035A10.191,10.191,0,0,0,20.585,35.431ZM37.312,55.875H31.737V45.653H29.878V55.875H11.293V45.653H9.434V55.875H3.859V48.228a8.324,8.324,0,0,1,5.258-7.766l7.028-2.811a4.617,4.617,0,0,0,8.882,0l7.028,2.811a8.324,8.324,0,0,1,5.258,7.766Z" transform="translate(0 0)" fill="#fff"/>
    <rect id="Rectangle_353" data-name="Rectangle 353" width="1.859" height="1.859" transform="translate(40.1 24.28)" fill="#fff"/>
    <rect id="Rectangle_354" data-name="Rectangle 354" width="1.859" height="1.859" transform="translate(40.1 48.441)" fill="#fff"/>
    <rect id="Rectangle_355" data-name="Rectangle 355" width="1.859" height="1.859" transform="translate(48.257 45.832) rotate(-45)" fill="#fff"/>
    <rect id="Rectangle_356" data-name="Rectangle 356" width="1.859" height="1.859" transform="translate(52.181 36.36)" fill="#fff"/>
    <rect id="Rectangle_357" data-name="Rectangle 357" width="1.859" height="1.859" transform="translate(48.257 28.748) rotate(-45)" fill="#fff"/>
  </g>
  <line id="Line_46" data-name="Line 46" x2="64" y2="38" transform="translate(63.762 2.762)" fill="#f5b904" stroke="#f5b904" stroke-linecap="round" stroke-width="4"/>
  <line id="Line_45" data-name="Line 45" x1="61" y2="39" transform="translate(2.762 2.762)" fill="#f5b904" stroke="#f5b904" stroke-linecap="round" stroke-width="4"/>
  <path id="Path_283" data-name="Path 283" d="M0,0,.639,65.172.843,86" transform="translate(112.342 32.762)" fill="rgba(0,0,0,0)" stroke="#f5b904" stroke-linecap="round" stroke-linejoin="round" stroke-width="4"/>
  <path id="Path_281" data-name="Path 281" d="M95.428,0H3.84" transform="translate(15.629 118.762)" fill="rgba(0,0,0,0)" stroke="#f5b904" stroke-linecap="round" stroke-linejoin="round" stroke-width="4"/>
</svg>
