<svg xmlns="http://www.w3.org/2000/svg" width="50.6" height="50.6" viewBox="0 0 50.6 50.6">
  <g id="workflow" transform="translate(-2 -2)">
    <path id="Path_52" data-name="Path 52" d="M51.757,44.167h-5.9V2.843A.843.843,0,0,0,45.01,2H2.843A.843.843,0,0,0,2,2.843v45.54A4.222,4.222,0,0,0,6.217,52.6H48.383A4.222,4.222,0,0,0,52.6,48.383V45.01A.843.843,0,0,0,51.757,44.167Zm-43.01.843v3.373a2.53,2.53,0,1,1-5.06,0V3.687h40.48v40.48H9.59A.843.843,0,0,0,8.747,45.01Zm42.167,3.373a2.533,2.533,0,0,1-2.53,2.53H9.588a4.2,4.2,0,0,0,.845-2.53v-2.53h40.48Z" fill="#fff"/>
    <path id="Path_53" data-name="Path 53" d="M23,27.217A4.217,4.217,0,1,0,27.217,23,4.222,4.222,0,0,0,23,27.217Zm6.747,0a2.53,2.53,0,1,1-2.53-2.53A2.533,2.533,0,0,1,29.747,27.217Z" transform="translate(-3.29 -3.29)" fill="#fff"/>
    <path id="Path_54" data-name="Path 54" d="M19.53,12.9h5.9v2.578c-.11.011-.213.019-.332.034a.843.843,0,0,0-.674.517l-.618,1.5a7.7,7.7,0,0,0-.863.356l-1.5-.626a.843.843,0,0,0-.842.112,9.347,9.347,0,0,0-1.663,1.663.844.844,0,0,0-.112.842l.627,1.5a7.7,7.7,0,0,0-.357.864l-1.5.617a.845.845,0,0,0-.516.674,8.5,8.5,0,0,0,0,2.35.845.845,0,0,0,.516.674l1.5.617a7.723,7.723,0,0,0,.356.864l-.626,1.5a.843.843,0,0,0,.112.842,9.31,9.31,0,0,0,1.663,1.664.846.846,0,0,0,.842.112l1.5-.626a7.705,7.705,0,0,0,.863.356l.618,1.5a.843.843,0,0,0,.674.517c.118.015.222.022.332.033v2.578h-5.9a.843.843,0,0,0-.843.843v4.217a.843.843,0,0,0,.843.843H33.023a.843.843,0,0,0,.843-.843V37.36a.843.843,0,0,0-.843-.843h-5.9V33.938c.11-.011.214-.018.332-.033a.843.843,0,0,0,.674-.517l.618-1.5a7.578,7.578,0,0,0,.863-.356l1.5.626a.847.847,0,0,0,.842-.112,9.31,9.31,0,0,0,1.663-1.664.844.844,0,0,0,.112-.842l-.627-1.5a7.661,7.661,0,0,0,.357-.864l1.5-.617a.845.845,0,0,0,.516-.674,8.505,8.505,0,0,0,0-2.35.845.845,0,0,0-.516-.674l-1.5-.617a7.722,7.722,0,0,0-.356-.864l.626-1.5a.843.843,0,0,0-.112-.842,9.311,9.311,0,0,0-1.663-1.664.843.843,0,0,0-.842-.112l-1.5.626a7.705,7.705,0,0,0-.863-.356l-.618-1.5a.843.843,0,0,0-.674-.517c-.119-.015-.222-.023-.332-.034V12.9h5.9a.843.843,0,0,0,.843-.843V7.843A.843.843,0,0,0,33.023,7H19.53a.843.843,0,0,0-.843.843V12.06a.843.843,0,0,0,.843.843Zm12.65,27.83H20.373V38.2H32.18Zm-4.3-21.7a5.931,5.931,0,0,1,1.272.525.848.848,0,0,0,.737.042l1.393-.583a7.745,7.745,0,0,1,.683.683l-.582,1.393a.846.846,0,0,0,.042.737,5.863,5.863,0,0,1,.525,1.272.842.842,0,0,0,.491.551l1.4.576c.013.169.019.327.019.48s-.006.311-.019.48l-1.4.576a.842.842,0,0,0-.491.551,5.891,5.891,0,0,1-.525,1.271.846.846,0,0,0-.043.738l.583,1.393a7.691,7.691,0,0,1-.683.683l-1.393-.583a.847.847,0,0,0-.738.043,5.879,5.879,0,0,1-1.271.524.841.841,0,0,0-.55.491l-.576,1.4a6.229,6.229,0,0,1-.96,0l-.576-1.4a.841.841,0,0,0-.55-.491,5.931,5.931,0,0,1-1.272-.525.846.846,0,0,0-.737-.042l-1.393.583a7.746,7.746,0,0,1-.683-.683l.582-1.393a.846.846,0,0,0-.042-.737,5.862,5.862,0,0,1-.525-1.272.842.842,0,0,0-.491-.551l-1.4-.576c-.013-.169-.019-.327-.019-.48s.006-.311.019-.48l1.4-.576A.842.842,0,0,0,20.6,23.1a5.892,5.892,0,0,1,.525-1.271.846.846,0,0,0,.043-.738L20.585,19.7a7.743,7.743,0,0,1,.683-.683l1.393.583a.848.848,0,0,0,.737-.042,5.931,5.931,0,0,1,1.272-.525.841.841,0,0,0,.55-.491l.576-1.4a6.229,6.229,0,0,1,.96,0l.576,1.4a.841.841,0,0,0,.55.491ZM20.373,8.687H32.18v2.53H20.373Z" transform="translate(-2.35 -0.783)" fill="#fff"/>
    <path id="Path_55" data-name="Path 55" d="M39.293,19.579a11.807,11.807,0,0,1-1.44,14.951l1.193,1.193A13.463,13.463,0,0,0,40.279,18.08h1.749V16.394H38.45a.843.843,0,0,0-.843.843v3.578h1.687Z" transform="translate(-5.578 -2.255)" fill="#fff"/>
    <path id="Path_56" data-name="Path 56" d="M12.97,34.329v1.687h3.578a.843.843,0,0,0,.843-.843V31.594H15.705V32.83a11.807,11.807,0,0,1,1.44-14.951l-1.193-1.193A13.463,13.463,0,0,0,14.72,34.329Z" transform="translate(-1.567 -2.301)" fill="#fff"/>
  </g>
</svg>
